<?xml version="1.0" encoding="UTF-8"?>
<svg width="400" height="400" viewBox="0 0 400 400" fill="none" xmlns="http://www.w3.org/2000/svg">
  <!-- Background -->
  <rect width="400" height="400" fill="#1E1B4B"/>
  
  <!-- Star Pattern -->
  <g fill="#F6E05E" opacity="0.3">
    <!-- Small Stars -->
    <circle cx="50" cy="50" r="1"/>
    <circle cx="150" cy="100" r="1"/>
    <circle cx="250" cy="150" r="1"/>
    <circle cx="350" cy="200" r="1"/>
    <circle cx="100" cy="250" r="1"/>
    <circle cx="200" cy="300" r="1"/>
    <circle cx="300" cy="350" r="1"/>
    
    <!-- Medium Stars -->
    <circle cx="75" cy="75" r="2"/>
    <circle cx="175" cy="125" r="2"/>
    <circle cx="275" cy="175" r="2"/>
    <circle cx="375" cy="225" r="2"/>
    <circle cx="125" cy="275" r="2"/>
    <circle cx="225" cy="325" r="2"/>
    <circle cx="325" cy="375" r="2"/>
    
    <!-- Large Stars -->
    <circle cx="100" cy="100" r="3"/>
    <circle cx="200" cy="150" r="3"/>
    <circle cx="300" cy="200" r="3"/>
    <circle cx="150" cy="250" r="3"/>
    <circle cx="250" cy="300" r="3"/>
    <circle cx="350" cy="350" r="3"/>
  </g>
</svg> 