<?xml version="1.0" encoding="UTF-8"?>
<svg width="128" height="128" viewBox="0 0 128 128" fill="none" xmlns="http://www.w3.org/2000/svg">
  <!-- Wizard Hat -->
  <path d="M64 20L20 60H108L64 20Z" fill="#9F7AEA"/>
  <path d="M20 60H108V80C108 93.2548 97.2548 104 84 104H44C30.7452 104 20 93.2548 20 80V60Z" fill="#9F7AEA"/>
  
  <!-- Stars -->
  <circle cx="64" cy="40" r="4" fill="#F6E05E"/>
  <circle cx="84" cy="60" r="3" fill="#F6E05E"/>
  <circle cx="44" cy="60" r="3" fill="#F6E05E"/>
  
  <!-- Face -->
  <circle cx="64" cy="70" r="20" fill="#F6E05E"/>
  <circle cx="54" cy="65" r="4" fill="#4A5568"/>
  <circle cx="74" cy="65" r="4" fill="#4A5568"/>
  <path d="M64 80C64 80 58 85 64 90C70 85 64 80 64 80Z" fill="#4A5568"/>
  
  <!-- Beard -->
  <path d="M64 90C64 90 58 95 64 100C70 95 64 90 64 90Z" fill="#9F7AEA"/>
</svg> 